<svg xmlns="http://www.w3.org/2000/svg" height="61.618mm" width="424.2mm" version="1.1" viewBox="0 0 424.20465 61.617509">
 <g transform="translate(497.52 -40.324)" fill="#6ac07a">
  <path d="m-482.07 101.37c-1.9652 0-3.9912-1.356-4.7127-3.1543l-10.24-25.494c-0.67598-1.6849-0.66283-4.32 0.0304-5.9989l9.224-22.317c0.76301-1.8478 2.9215-3.3314 4.9151-3.3789l19.361-0.45842c2.1686 0 3.9598 1.5028 4.0792 3.4204 0.11941 1.95-1.5685 3.6845-3.7645 3.8657l-14.33 1.185c-0.9563 0.07893-2.1342 0.97148-2.4712 1.8711l-6.0839 16.237c-0.41085 1.098-0.43109 3.0298-0.0425 4.1359l6.4735 18.422c0.30764 0.87534 1.4299 1.7041 2.3548 1.7375l16.584 0.60717c2.1858 0.07994 3.9922 1.7325 4.1126 3.7624 0.12447 2.0553-1.5695 3.8555-3.7736 4.0134l-21.42 1.5301c-0.10119 0.007-0.20137 0.0101-0.30257 0.0101m18.585-58.105-19.297 0.45639c-0.94719 0.02328-2.1393 0.84195-2.5016 1.7193l-9.224 22.317c-0.42704 1.0352-0.43716 2.9245-0.0202 3.9638l10.233 25.489c0.31978 0.79742 1.3388 1.4694 2.2253 1.4694h0.001c0.0364 0 0.0739-0.001 0.11132-0.003l21.42-1.5311c0.73165-0.05161 1.3216-0.58693 1.2882-1.1678-0.0385-0.62944-0.75492-1.2062-1.5341-1.2346l-16.584-0.60616c-2.0138-0.07489-4.1166-1.6262-4.7865-3.5337l-6.4735-18.421c-0.59098-1.6819-0.56366-4.3079 0.0617-5.9776l6.0839-16.236c0.69522-1.86 2.7879-3.4437 4.7612-3.6066l14.33-1.185c0.78022-0.06375 1.3328-0.59098 1.3074-1.017-0.0263-0.423-0.63247-0.89558-1.4026-0.89558"/>

  <path d="m-421.01 101.46c-0.60616 0-1.1789-0.10018-1.7011-0.29853l-24.107-9.1511c-1.8924-0.71748-3.3739-2.8709-3.3739-4.9009v-26.855c0-1.866 1.0241-4.236 2.3832-5.5111l13.995-13.132c0.87028-0.81665 2.1211-1.2852 3.4305-1.2852 0.89052 0 1.7335 0.21959 2.4358 0.63348l22.022 12.976c1.6798 0.98969 2.9519 3.2969 2.8962 5.251l-0.64158 22.254c-0.0516 1.779-1.0069 4.2219-2.1767 5.5617l-11.106 12.717c-0.9391 1.0737-2.4935 1.7416-4.0569 1.7416m-9.3727-58.444c-0.61831 0-1.2305 0.21454-1.5989 0.56062l-13.995 13.132c-0.80248 0.7529-1.5341 2.4418-1.5341 3.5449v26.855c0 0.92189 0.78224 2.0583 1.6424 2.3852l24.106 9.1491c0.21554 0.08197 0.47561 0.12548 0.75289 0.12548 0.78932 0 1.609-0.33192 2.0401-0.82474l11.107-12.718c0.77212-0.88344 1.4785-2.6898 1.5119-3.8647l0.64158-22.253c0.0283-0.99172-0.72153-2.3518-1.5736-2.8537l-22.022-12.977c-0.2874-0.169-0.66992-0.2621-1.0777-0.2621"/>

  <path d="m-358.75 101.35c-1.7507 0-3.9527-1.1344-5.1225-2.6392l-20.287-26.092-1.4552 24.78c-0.1265 2.1585-1.8529 3.9142-3.8495 3.9142h-0.0546c-2.033-0.0334-3.7129-1.8519-3.7452-4.0549l-0.77819-54.017c-0.0142-0.96642 0.19531-1.6566 0.63956-2.1089 0.31775-0.32281 0.73771-0.50092 1.184-0.50092 1.1304 0 1.8205 1.0919 2.0482 1.4511l27.049 42.777 2.4004-40.319c0.13257-2.2152 1.7011-3.9507 3.5722-3.9507 0.81766 0 1.6019 0.34305 2.2091 0.96439 0.75391 0.77414 1.1718 1.9035 1.1445 3.0996l-1.1405 52.69c-0.0476 2.2091-1.7588 4.0063-3.8141 4.0063m-25.942-32.328c0.75492 0 1.4653 0.42097 2.1099 1.2508l20.824 26.783c0.65271 0.83891 2.0877 1.6029 3.0085 1.6029 0.59807 0 1.1172-0.62944 1.1334-1.3742l1.1415-52.689c0.0111-0.55455-0.18923-0.96237-0.3815-1.1597-0.0698-0.07185-0.17608-0.15584-0.29246-0.15584-0.32281 0-0.84397 0.5667-0.89457 1.4208l-2.4894 41.789c-0.14168 2.3862-1.6677 2.5066-1.9713 2.5066-0.78123 0-1.4866-0.48877-2.0958-1.4522l-26.73-42.273 0.74783 51.949c0.0101 0.73772 0.52723 1.3935 1.1061 1.4026 0.59402 0 1.1415-0.64563 1.184-1.3813l1.5068-25.654c0.14268-2.4398 1.7679-2.5643 2.0927-2.5643"/>

  <path d="m-285.91 101.72c-1.9986 0-4.0195-1.4036-4.6965-3.2646l-6.9096-18.962c-0.5758-1.5786-0.89963-4.1247-0.73873-5.7965l2.6827-27.829c0.20644-2.1443 2.0472-3.9244 4.1895-4.0539l23.86-1.44c2.1888-0.13358 4.1298 1.3672 4.3575 3.305 0.22972 1.9531-1.3257 3.8525-3.469 4.235l-18.025 3.214c-0.83487 0.14977-1.6404 1.0595-1.689 1.9096l-0.76908 13.479c-0.0182 0.33192 0.087 0.63854 0.29954 0.8632 0.21048 0.22465 0.50699 0.34811 0.83587 0.34811l13.544-0.27019c2.2121 0 3.9436 1.3722 3.9436 3.1239 0 1.7062-1.6323 3.2332-3.7979 3.554l-13.002 1.9227c-0.3471 0.05161-0.65473 0.2368-0.86421 0.52217-0.20947 0.28638-0.29448 0.63652-0.23882 0.98564l2.2182 14.035c0.13156 0.83183 0.98261 1.5857 1.8205 1.6141l13.821 0.46752c2.1312 0.07286 4.0033 1.5189 4.2624 3.2939 0.12042 0.82677-0.11435 1.6525-0.66283 2.3265-0.67598 0.83082-1.7568 1.3459-2.966 1.4147l-17.771 0.99476c-0.0789 0.005-0.15686 0.007-0.23579 0.007m18.658-58.663c-0.0364 0-0.0729 0.002-0.10929 0.004l-23.861 1.44c-0.81766 0.04857-1.6029 0.80855-1.6819 1.6262l-2.6817 27.828c-0.12245 1.2649 0.15281 3.4214 0.58693 4.6145l6.9096 18.961c0.29144 0.79843 1.3095 1.4997 2.1787 1.4997l0.086-0.003 17.77-0.99678c0.53431-0.02935 0.88748-0.24084 1.0403-0.42907 0.10221-0.12548 0.0901-0.20441 0.086-0.23477-0.0546-0.37442-0.75998-0.96237-1.6991-0.99374l-13.821-0.46752c-2.1231-0.07185-4.0458-1.777-4.3787-3.8829l-2.2182-14.035c-0.16899-1.0646 0.0891-2.1292 0.72659-2.9994 0.63652-0.87028 1.5716-1.4339 2.6341-1.5918l13.002-1.9227c0.92189-0.13661 1.4815-0.69825 1.5078-0.8976-0.0465-0.09917-0.49788-0.42704-1.2629-0.42704l-13.544 0.27019c-1.0737 0-2.0634-0.423-2.7859-1.1911-0.72355-0.76908-1.0878-1.7861-1.0261-2.8648l0.76807-13.479c0.12042-2.1008 1.8326-4.0367 3.898-4.405l18.024-3.214c0.79944-0.14268 1.3327-0.78831 1.2751-1.269-0.0526-0.45336-0.63753-0.93909-1.4228-0.93909"/>

  <path d="m-245.12 101.87-0.0597-0.001c-1.8164-0.0374-3.3951-1.7699-3.5934-3.9436l-4.9201-53.595c-0.0971-1.0534 0.21858-2.0391 0.88748-2.7758 0.74075-0.81462 1.8023-1.2235 2.9994-1.1071l28.078 2.7252c2.1039 0.20441 3.9355 2.0148 4.1703 4.1227l1.9996 17.958c0.23781 2.1332-1.267 4.2563-3.3536 4.7309l-20.369 4.6348c-0.84195 0.19126-1.6353 1.1526-1.6647 2.0188l-0.73366 21.286c-0.0759 2.2121-1.5868 3.9456-3.4406 3.9456m-5.0709-58.751c-0.26715 0-0.48573 0.08703-0.63348 0.24894-0.15786 0.17304-0.22566 0.41996-0.19834 0.71545l4.9201 53.595c0.084 0.91987 0.68206 1.4947 0.97957 1.5007l0.003 1.3459v-1.3459c0.25198 0 0.73266-0.51104 0.76099-1.3479l0.73367-21.286c0.0719-2.0897 1.7193-4.0883 3.7513-4.5497l20.369-4.6348c0.77009-0.17507 1.3692-1.0201 1.2821-1.8084l-1.9996-17.957c-0.0931-0.83284-0.93302-1.6637-1.7638-1.7446l-28.09-2.721c-0.0425-0.004-0.086-0.0071-0.1265-0.0071"/>

  <path d="m-328.68 101.5c-1.9662 0-3.9922-1.356-4.7137-3.1553l-10.233-25.49c-0.68712-1.7132-0.67497-4.2917 0.0304-5.9979l9.224-22.318c0.76302-1.8468 2.9215-3.3314 4.9151-3.3779l19.361-0.45842c2.0927 0 3.9932 1.4329 4.3271 3.2615 0.16394 0.8976-0.0567 1.7972-0.62032 2.5349-0.64968 0.84903-1.692 1.3904-2.8588 1.4845l-14.866 1.1961c-0.9563 0.07691-2.1322 0.9654-2.4692 1.866l-6.0839 16.236c-0.41086 1.097-0.43109 3.0308-0.0425 4.1359l6.4735 18.421c0.30763 0.87635 1.4299 1.7051 2.3558 1.7396l16.583 0.60616c2.1858 0.07994 3.9922 1.7325 4.1126 3.7614 0.12447 2.0563-1.5696 3.8566-3.7746 4.0144l-21.419 1.5301c-0.10119 0.006-0.20036 0.0101-0.30156 0.0101m18.584-58.106-19.297 0.4574c-0.94719 0.02226-2.1393 0.84195-2.5016 1.7193l-9.224 22.317c-0.42704 1.0352-0.43716 2.9245-0.0202 3.9628l10.233 25.49c0.33192 0.8298 1.4107 1.5291 2.3376 1.4653l21.42-1.5301c0.73164-0.05262 1.3216-0.58693 1.2882-1.1678-0.0385-0.62944-0.75492-1.2062-1.5351-1.2356l-16.583-0.60616c-2.0138-0.07286-4.1166-1.6252-4.7865-3.5327l-6.4735-18.421c-0.59098-1.6829-0.56366-4.3079 0.0617-5.9776l6.0839-16.237c0.69623-1.86 2.789-3.4417 4.7643-3.6005l14.866-1.1961c0.40681-0.03238 0.75998-0.19733 0.94618-0.4402 0.14875-0.19531 0.12042-0.35823 0.1103-0.41186-0.0911-0.49788-0.83284-1.0555-1.69-1.0555"/>

  <path d="m-188.68 101.94c-1.781 0-3.2848-1.7335-3.4244-3.9456l-2.8001-44.749c-0.0476-0.77212-0.73974-1.4248-1.5108-1.4248h-7.6736c-2.1555 0-4.064-1.7527-4.2522-3.9072l-0.18417-2.0745c-0.0951-1.0868 0.24388-2.1261 0.95629-2.9266 0.71242-0.80046 1.7031-1.2568 2.79-1.2842l28.456-0.71646c2.1383 0 4.0073 1.6657 4.2563 3.7928l0.21656 1.8337c0.1275 1.0828-0.19936 2.1534-0.89558 2.9387-0.69724 0.78528-1.7183 1.2356-2.8041 1.2356h-7.4571c-0.74278 0-1.3823 0.62944-1.3995 1.3742l-0.95832 45.846c-0.0476 2.2476-1.5048 4.0073-3.3152 4.0073m12.357-58.338-28.388 0.71646c-0.339 0.0081-0.6436 0.14572-0.85712 0.38556-0.21352 0.24084-0.31573 0.55961-0.28537 0.89862l0.18316 2.0745c0.0678 0.77516 0.80754 1.4532 1.5817 1.4532h7.6736c2.1716 0 4.0508 1.7709 4.1875 3.9466l2.8001 44.749c0.0577 0.91886 0.58389 1.4238 0.74783 1.4238 0.15078 0 0.61527-0.48675 0.6345-1.3732l0.95933-45.846c0.0466-2.2101 1.8762-4.0073 4.0792-4.0073h7.4571c0.32585 0 0.6092-0.1184 0.80046-0.33293 0.19025-0.21656 0.27424-0.51306 0.2368-0.83689l-0.24-1.832c-0.0901-0.76807-0.81969-1.4177-1.5938-1.4177"/>

  <path d="m-160.5 101.61-0.0607-0.001c-1.5716-0.0465-2.6817-1.7699-2.6412-4.0994l0.93606-52.293c0.0395-2.2334 1.3115-4.0094 2.96-4.1298 1.7122-0.12649 3.136 1.5544 3.3091 3.8009l1.5938 20.687c0.0587 0.75795 0.74986 1.3975 1.5078 1.3975l13.802-0.22364c0.77111-0.01214 1.4532-0.67497 1.4886-1.4481l0.94617-20.338c0.10423-2.2567 1.4512-3.9689 3.132-3.9851 1.7112 0 3.0338 1.7669 3.0338 4.0225v52.532c0 2.2637-1.4056 4.0367-3.1998 4.0367-1.7608 0-3.22-1.7446-3.3233-3.9709l-1.0008-21.492c-0.0344-0.71444-0.66081-1.2639-1.3651-1.2143l-13.39 0.97046c-0.83486 0.06173-1.7011 0.87332-1.8175 1.7051l-2.8426 20.262c-0.26412 1.8782-1.4026 3.7807-3.0682 3.7807m21.216-29.413c2.114 0 3.8474 1.6626 3.9466 3.7837l1.0008 21.492c0.0415 0.89862 0.51205 1.3823 0.64866 1.4056 0.11435-0.03238 0.51407-0.50092 0.51407-1.3459v-52.534c0-0.65878-0.20441-1.0858-0.34507-1.2649-0.17305 0.1862-0.42806 0.65777-0.46044 1.353l-0.94618 20.338c-0.10018 2.1777-1.951 3.978-4.1227 4.0134l-13.847 0.22364c-2.1767 0-4.0124-1.7051-4.1804-3.8819l-1.5938-20.686c-0.0526-0.68105-0.30359-1.1-0.46044-1.2639-0.17406 0.19227-0.44223 0.70432-0.45538 1.4329l-0.93505 52.292c-0.007 0.39669 0.0455 0.72152 0.11435 0.96439 0.12953-0.26311 0.25704-0.62842 0.31877-1.0666l2.8426-20.261c0.29347-2.0978 2.1737-3.8606 4.2785-4.0134l13.391-0.97148c0.0982-0.0071 0.19429-0.01113 0.29043-0.01113"/>
  
  <path d="m-91.294 101.67c-0.60818 0-1.181-0.10018-1.7021-0.29853l-24.107-9.1511c-1.8924-0.71849-3.3749-2.8719-3.3749-4.9009v-26.855c0-1.8671 1.0251-4.236 2.3842-5.5111l13.995-13.132c0.8713-0.81665 2.1211-1.2852 3.4305-1.2852 0.89052 0 1.7335 0.21858 2.4358 0.63348l22.021 12.977c1.6798 0.98969 2.9529 3.2959 2.8962 5.25l-0.64057 22.253c-0.0506 1.779-1.0069 4.2219-2.1757 5.5617l-11.105 12.717c-0.93808 1.0747-2.4924 1.7426-4.0559 1.7426m-9.3737-58.444c-0.6183 0-1.2305 0.21454-1.5989 0.55961l-13.995 13.132c-0.80248 0.7529-1.5341 2.4429-1.5341 3.5459v26.855c0 0.92189 0.78225 2.0583 1.6424 2.3852l24.106 9.1501c0.21555 0.08096 0.47562 0.12447 0.75391 0.12447 0.78831 0 1.608-0.33091 2.0381-0.82373l11.107-12.719c0.77212-0.88344 1.4795-2.6908 1.5129-3.8647l0.64158-22.253c0.02833-0.9907-0.72254-2.3518-1.5736-2.8537l-22.026-12.977c-0.2874-0.169-0.66991-0.2621-1.0777-0.2621"/>
 </g>
</svg>
