<svg width="187" height="24" viewBox="0 0 187 24" version="1.1" xmlns="http://www.w3.org/2000/svg" xmlns:xlink="http://www.w3.org/1999/xlink">
<title>tribunaonline</title>
<desc>Created using Figma</desc>
<g id="Canvas" transform="translate(3852 2577)">
<g id="tribunaonline">
<use xlink:href="#path0_fill" transform="translate(-3852 -2584)" fill="#F0002D"/>
<use xlink:href="#path1_fill" transform="translate(-3852 -2584)" fill="#00529E"/>
</g>
</g>
<defs>
<path id="path0_fill" d="M 109.746 30.248C 107.308 30.248 105.499 29.597 104.321 28.295C 103.143 26.993 102.554 25.0297 102.554 22.405C 102.554 19.7597 103.205 17.7447 104.507 16.36C 105.83 14.9547 107.721 14.252 110.18 14.252C 112.64 14.252 114.458 14.872 115.636 16.112C 116.835 17.352 117.434 19.2947 117.434 21.94C 117.434 24.5647 116.763 26.6107 115.419 28.078C 114.097 29.5247 112.206 30.248 109.746 30.248ZM 107.018 22.126C 107.018 25.4327 108.01 27.086 109.994 27.086C 111.007 27.086 111.751 26.714 112.226 25.97C 112.722 25.2053 112.97 23.9653 112.97 22.25C 112.97 19.026 111.958 17.414 109.932 17.414C 108.94 17.414 108.207 17.7757 107.731 18.499C 107.256 19.2017 107.018 20.4107 107.018 22.126ZM 119.334 14.5C 120.47 14.252 121.493 14.128 122.403 14.128C 123.312 14.128 124.066 14.1487 124.666 14.19L 124.666 15.74C 125.182 15.306 125.864 14.9547 126.712 14.686C 127.58 14.3967 128.406 14.252 129.192 14.252C 131.217 14.252 132.633 14.7273 133.439 15.678C 134.265 16.6287 134.679 18.2717 134.679 20.607L 134.679 26.559C 135.485 26.869 136.053 27.2203 136.384 27.613L 136.074 30L 128.944 30L 128.634 27.613C 128.923 27.2203 129.491 26.869 130.339 26.559L 130.339 20.421C 130.339 19.305 130.153 18.561 129.781 18.189C 129.429 17.7963 128.789 17.6 127.859 17.6C 126.929 17.6 125.999 17.9307 125.069 18.592L 125.069 26.559C 125.875 26.869 126.443 27.2203 126.774 27.613L 126.464 30L 119.334 30L 119.024 27.613C 119.313 27.2203 119.881 26.869 120.729 26.559L 120.729 17.941C 120.005 17.693 119.437 17.3417 119.024 16.887L 119.334 14.5ZM 137.398 7.99C 138.556 7.72133 139.63 7.587 140.622 7.587C 141.614 7.587 142.451 7.618 143.133 7.68L 143.133 26.559C 143.939 26.869 144.508 27.2203 144.838 27.613L 144.528 30L 137.398 30L 137.088 27.613C 137.378 27.2203 137.946 26.869 138.793 26.559L 138.793 11.431C 138.07 11.183 137.502 10.8317 137.088 10.377L 137.398 7.99ZM 146.49 14.5C 147.648 14.2313 148.722 14.097 149.715 14.097C 150.706 14.097 151.544 14.128 152.226 14.19L 152.226 26.559C 153.031 26.869 153.6 27.2203 153.93 27.613L 153.621 30L 146.49 30L 146.181 27.613C 146.47 27.2203 147.038 26.869 147.885 26.559L 147.885 17.941C 147.162 17.693 146.594 17.3417 146.181 16.887L 146.49 14.5ZM 149.993 12.361C 148.278 12.361 147.421 11.586 147.421 10.036C 147.421 8.46533 148.278 7.68 149.993 7.68C 151.73 7.68 152.597 8.46533 152.597 10.036C 152.597 11.586 151.73 12.361 149.993 12.361ZM 155.48 14.5C 156.617 14.252 157.64 14.128 158.549 14.128C 159.459 14.128 160.213 14.1487 160.812 14.19L 160.812 15.74C 161.329 15.306 162.011 14.9547 162.858 14.686C 163.726 14.3967 164.553 14.252 165.338 14.252C 167.364 14.252 168.779 14.7273 169.585 15.678C 170.412 16.6287 170.825 18.2717 170.825 20.607L 170.825 26.559C 171.631 26.869 172.2 27.2203 172.53 27.613L 172.22 30L 165.09 30L 164.78 27.613C 165.07 27.2203 165.638 26.869 166.485 26.559L 166.485 20.421C 166.485 19.305 166.299 18.561 165.927 18.189C 165.576 17.7963 164.935 17.6 164.005 17.6C 163.075 17.6 162.145 17.9307 161.215 18.592L 161.215 26.559C 162.021 26.869 162.59 27.2203 162.92 27.613L 162.61 30L 155.48 30L 155.17 27.613C 155.46 27.2203 156.028 26.869 156.875 26.559L 156.875 17.941C 156.152 17.693 155.584 17.3417 155.17 16.887L 155.48 14.5ZM 181.047 30.248C 178.567 30.248 176.696 29.5867 175.436 28.264C 174.196 26.9413 173.576 25.0193 173.576 22.498C 173.576 20.9687 173.793 19.6563 174.227 18.561C 174.661 17.445 175.25 16.5873 175.994 15.988C 177.44 14.8307 179.125 14.252 181.047 14.252C 182.969 14.252 184.436 14.748 185.449 15.74C 186.482 16.7113 186.999 18.468 186.999 21.01C 186.999 22.498 186.265 23.242 184.798 23.242L 178.071 23.242C 178.153 24.544 178.484 25.4637 179.063 26.001C 179.662 26.5383 180.602 26.807 181.884 26.807C 182.586 26.807 183.258 26.7243 183.899 26.559C 184.539 26.3937 185.004 26.2283 185.294 26.063L 185.728 25.815L 186.658 28.295C 186.534 28.4397 186.348 28.6257 186.1 28.853C 185.872 29.0597 185.273 29.349 184.302 29.721C 183.351 30.0723 182.266 30.248 181.047 30.248ZM 183 20.483C 183.041 20.1937 183.062 19.8423 183.062 19.429C 183.062 19.0157 182.896 18.5817 182.566 18.127C 182.235 17.6517 181.656 17.414 180.83 17.414C 180.024 17.414 179.404 17.662 178.97 18.158C 178.536 18.654 178.246 19.491 178.102 20.669L 183 20.483Z"/>
<path id="path1_fill" d="M 6.448 10.594L 6.448 14.5L 10.881 14.5L 10.881 17.104L 6.448 17.104L 6.448 24.947C 6.448 25.6083 6.541 26.094 6.727 26.404C 6.913 26.6933 7.35733 26.838 8.06 26.838C 8.76267 26.838 9.517 26.683 10.323 26.373L 11.253 28.791C 9.66167 29.597 8.029 30 6.355 30C 4.70167 30 3.57533 29.6487 2.976 28.946C 2.39733 28.2227 2.108 27.179 2.108 25.815L 2.108 17.104L 0.713 17.104L 0.372 15.213C 0.702667 14.8203 1.38467 14.4277 2.418 14.035C 2.666 12.3403 3.255 11.1933 4.185 10.594L 6.448 10.594ZM 21.6402 18.313C 20.0695 18.313 18.9845 18.6127 18.3852 19.212L 18.3852 26.311C 20.0592 26.621 21.2062 27.055 21.8262 27.613L 21.5162 30L 12.6502 30L 12.3402 27.613C 12.6295 27.2203 13.1978 26.869 14.0452 26.559L 14.0452 17.941C 13.3218 17.693 12.7535 17.3417 12.3402 16.887L 12.6502 14.5C 13.7868 14.252 14.8098 14.128 15.7192 14.128C 16.6285 14.128 17.3828 14.1487 17.9822 14.19L 17.9822 16.143C 18.4575 15.585 19.0672 15.1303 19.8112 14.779C 20.5552 14.407 21.2268 14.221 21.8262 14.221C 22.4462 14.221 22.8698 14.2727 23.0972 14.376L 23.0042 18.406C 22.5908 18.344 22.1362 18.313 21.6402 18.313ZM 24.7307 14.5C 25.8881 14.2313 26.9627 14.097 27.9547 14.097C 28.9467 14.097 29.7837 14.128 30.4657 14.19L 30.4657 26.559C 31.2717 26.869 31.8401 27.2203 32.1707 27.613L 31.8607 30L 24.7307 30L 24.4207 27.613C 24.7101 27.2203 25.2784 26.869 26.1257 26.559L 26.1257 17.941C 25.4024 17.693 24.8341 17.3417 24.4207 16.887L 24.7307 14.5ZM 28.2337 12.361C 26.5184 12.361 25.6607 11.586 25.6607 10.036C 25.6607 8.46533 26.5184 7.68 28.2337 7.68C 29.9697 7.68 30.8377 8.46533 30.8377 10.036C 30.8377 11.586 29.9697 12.361 28.2337 12.361ZM 32.7595 7.99C 33.9168 7.72133 34.9915 7.587 35.9835 7.587C 36.9755 7.587 37.8125 7.618 38.4945 7.68L 38.4945 15.43C 38.9285 15.12 39.5072 14.8513 40.2305 14.624C 40.9538 14.376 41.6462 14.252 42.3075 14.252C 44.5602 14.252 46.1412 14.8307 47.0505 15.988C 47.9598 17.1453 48.4145 19.119 48.4145 21.909C 48.4145 23.459 48.1975 24.8023 47.7635 25.939C 47.3502 27.055 46.7818 27.9127 46.0585 28.512C 44.6945 29.6693 43.0825 30.248 41.2225 30.248C 39.8172 30.248 38.4325 29.8967 37.0685 29.194C 36.6758 29.7313 36.2212 30 35.7045 30L 34.1545 30L 34.1545 11.431C 33.4312 11.183 32.8628 10.8317 32.4495 10.377L 32.7595 7.99ZM 40.9745 27.086C 42.9585 27.086 43.9505 25.4223 43.9505 22.095C 43.9505 20.3383 43.7748 19.15 43.4235 18.53C 43.0928 17.8893 42.5038 17.569 41.6565 17.569C 40.3752 17.569 39.3212 17.91 38.4945 18.592L 38.4945 26.559C 39.3832 26.9103 40.2098 27.086 40.9745 27.086ZM 61.4999 28.698C 60.0739 29.7313 58.3895 30.248 56.4469 30.248C 54.5249 30.248 53.1815 29.845 52.4169 29.039C 51.6522 28.233 51.2699 26.9207 51.2699 25.102L 51.2699 17.941C 50.5465 17.693 49.9782 17.3417 49.5649 16.887L 49.8749 14.5C 51.0322 14.2313 52.1069 14.097 53.0989 14.097C 54.0909 14.097 54.9279 14.128 55.6099 14.19L 55.6099 24.079C 55.6099 25.195 55.7752 25.939 56.1059 26.311C 56.4572 26.6623 57.1392 26.838 58.1519 26.838C 59.1645 26.838 60.1049 26.5073 60.9729 25.846L 60.9729 17.941C 60.2495 17.693 59.6812 17.3417 59.2679 16.887L 59.5779 14.5C 60.7352 14.2313 61.8099 14.097 62.8019 14.097C 63.7939 14.097 64.6309 14.128 65.3129 14.19L 65.3129 26.28C 66.0362 26.4247 66.6046 26.6003 67.0179 26.807L 67.0179 29.256C 65.7779 29.9173 64.2175 30.248 62.3369 30.248C 61.8202 29.876 61.5412 29.3593 61.4999 28.698ZM 68.5955 14.5C 69.7322 14.252 70.7552 14.128 71.6645 14.128C 72.5738 14.128 73.3282 14.1487 73.9275 14.19L 73.9275 15.74C 74.4442 15.306 75.1262 14.9547 75.9735 14.686C 76.8415 14.3967 77.6682 14.252 78.4535 14.252C 80.4788 14.252 81.8945 14.7273 82.7005 15.678C 83.5272 16.6287 83.9405 18.2717 83.9405 20.607L 83.9405 26.559C 84.7465 26.869 85.3148 27.2203 85.6455 27.613L 85.3355 30L 78.2055 30L 77.8955 27.613C 78.1848 27.2203 78.7532 26.869 79.6005 26.559L 79.6005 20.421C 79.6005 19.305 79.4145 18.561 79.0425 18.189C 78.6912 17.7963 78.0505 17.6 77.1205 17.6C 76.1905 17.6 75.2605 17.9307 74.3305 18.592L 74.3305 26.559C 75.1365 26.869 75.7048 27.2203 76.0355 27.613L 75.7255 30L 68.5955 30L 68.2855 27.613C 68.5748 27.2203 69.1432 26.869 69.9905 26.559L 69.9905 17.941C 69.2672 17.693 68.6988 17.3417 68.2855 16.887L 68.5955 14.5ZM 87.342 16.794C 87.342 16.484 87.3523 16.1533 87.373 15.802C 89.295 14.7687 91.3617 14.252 93.573 14.252C 95.7843 14.252 97.3653 14.6757 98.316 15.523C 99.2873 16.3497 99.773 17.7343 99.773 19.677L 99.773 26.28C 100.496 26.4247 101.065 26.6003 101.478 26.807L 101.478 29.504C 100.424 30 98.9153 30.248 96.952 30.248C 96.7453 29.7107 96.5697 29.0597 96.425 28.295C 95.5363 29.597 93.9243 30.248 91.589 30.248C 90.2043 30.248 89.016 29.845 88.024 29.039C 87.0527 28.233 86.567 27.1377 86.567 25.753C 86.567 24.3683 87.0217 23.2833 87.931 22.498C 88.861 21.692 90.2353 21.289 92.054 21.289L 95.433 21.289L 95.433 19.801C 95.433 18.189 94.5753 17.383 92.86 17.383C 92.2193 17.383 91.6923 17.445 91.279 17.569C 91.2377 18.437 91.1137 19.1087 90.907 19.584L 87.869 19.584C 87.5177 18.8607 87.342 17.9307 87.342 16.794ZM 92.922 27.086C 93.976 27.086 94.813 26.776 95.433 26.156L 95.433 23.614L 93.263 23.614C 91.775 23.614 91.031 24.1823 91.031 25.319C 91.031 25.8357 91.186 26.2593 91.496 26.59C 91.8267 26.9207 92.302 27.086 92.922 27.086Z"/>
</defs>
</svg>
